<?xml version="1.0" encoding="utf-8"?>
<!-- Generator: Adobe Illustrator 25.0.0, SVG Export Plug-In . SVG Version: 6.00 Build 0)  -->
<svg version="1.1" id="Capa_1" xmlns="http://www.w3.org/2000/svg" xmlns:xlink="http://www.w3.org/1999/xlink" x="0px" y="0px"
	 viewBox="0 0 1000 1000" style="enable-background:new 0 0 1000 1000;" xml:space="preserve">
<style type="text/css">
	.st0{fill:#1A1A1A;}
	.st1{fill:none;stroke:#1A1A1A;stroke-width:3;stroke-miterlimit:10;}
</style>
<image style="overflow:visible;" width="3080" height="3625" xlink:href="B9688E7F.png"  transform="matrix(0.24 0 0 0.24 95.76 48.64)">
</image>
<path class="st0" d="M584.9,259c8.9,14.9,17.8,29.8,26.7,44.7c8.8-14.9,17.6-29.8,26.3-44.7c-8.4-20.2-16.9-40.4-25.3-60.6
	C603.3,218.6,594.1,238.8,584.9,259z"/>
<line class="st1" x1="526.2" y1="260" x2="572.1" y2="260"/>
<line class="st1" x1="649.6" y1="260" x2="695.5" y2="260"/>
<line class="st1" x1="611.4" y1="312.5" x2="611.4" y2="358.4"/>
<line class="st1" x1="580.7" y1="290.6" x2="563.5" y2="305.8"/>
<line class="st1" x1="658.5" y1="219.5" x2="641.3" y2="234.8"/>
<line class="st1" x1="564.5" y1="218.6" x2="579.8" y2="235.7"/>
<line class="st1" x1="642.3" y1="289.6" x2="657.5" y2="306.8"/>
</svg>
